<svg xmlns="http://www.w3.org/2000/svg" width="1024" height="1024" viewBox="0 0 512 512">
  <rect width="512" height="512" rx="38" style="display:inline;fill:#4e7e4e"/>
  <path d="M66.5 135.47v248.16h68.16v-144q0-18.24 5.28-29.28 5.28-11.52 12.48-17.28 7.68-6.24 15.36-8.16 8.16-2.4 12.96-2.4 16.32 0 24.48 5.76 8.64 5.28 12 14.4 3.84 9.12 4.32 20.16.48 10.56.48 21.6v139.2h68.16V245.39q0-11.52 1.44-22.56 1.92-11.52 6.72-20.16 5.28-9.12 13.92-14.4 9.12-5.76 23.52-5.76t22.56 4.8q8.64 4.8 12.96 12.96t5.28 19.2.96 23.52v140.64h68.16V217.55q0-24-6.72-40.8-6.72-17.28-18.72-27.84t-28.8-15.36-36.48-4.8q-25.92 0-45.12 12.48-18.72 12.48-29.76 28.8-10.08-23.04-29.76-32.16-19.2-9.12-42.72-9.12-24.48 0-43.68 10.56-18.72 10.56-32.16 29.76h-.96v-33.6z" style="fill:#fff"/>
</svg>
